<?xml version="1.0" encoding="UTF-8"?>
<svg width="24px" height="24px" viewBox="0 0 24 24" version="1.1" xmlns="http://www.w3.org/2000/svg">
    <g stroke="none" stroke-width="1" fill="none" fill-rule="evenodd">
        <path d="M1.5,0 L21,0 C22.1,0 23,0.9 23,2 L23,22 C23,23.1 22.1,24 21,24 L1.5,24 C0.7,24 0,23.3 0,22.5 L0,1.5 C0,0.7 0.7,0 1.5,0 Z" fill="#264DE4"/>
        <path d="M7.5,18 L5.5,5.5 L18.5,5.5 L16.5,18 L12,19.5 L7.5,18 Z" fill="#2965F1"/>
        <path d="M12,7 L12,17 L15.5,16 L17,7 L12,7 Z" fill="#EBEBEB"/>
        <path d="M12,7 L7,7 L7.5,11 L12,11 L12,7 Z" fill="#EBEBEB"/>
        <path d="M12,11 L8,11 L8.5,15 L12,15 L12,11 Z" fill="#EBEBEB"/>
        <path d="M12,15 L9.5,15 L10,18.5 L12,19.5 L12,15 Z" fill="#EBEBEB"/>
    </g>
</svg> 