<?xml version="1.0" encoding="UTF-8"?>
<svg width="24px" height="24px" viewBox="0 0 24 24" version="1.1" xmlns="http://www.w3.org/2000/svg">
    <g stroke="none" stroke-width="1" fill="none" fill-rule="evenodd">
        <path d="M12,0 C5.373,0 0,5.373 0,12 C0,18.627 5.373,24 12,24 C18.627,24 24,18.627 24,12 C24,5.373 18.627,0 12,0 Z M12,2 C17.523,2 22,6.477 22,12 C22,17.523 17.523,22 12,22 C6.477,22 2,17.523 2,12 C2,6.477 6.477,2 12,2 Z" fill="#000000"/>
        <path d="M18.5,12 L18.5,11.5 L18,11.5 L18,12.5 L18.5,12.5 L18.5,12 Z M16.5,12 L16.5,11.5 L16,11.5 L16,12.5 L16.5,12.5 L16.5,12 Z M14.5,12 L14.5,11.5 L14,11.5 L14,12.5 L14.5,12.5 L14.5,12 Z M12.5,12 L12.5,11.5 L12,11.5 L12,12.5 L12.5,12.5 L12.5,12 Z M10.5,12 L10.5,11.5 L10,11.5 L10,12.5 L10.5,12.5 L10.5,12 Z M8.5,12 L8.5,11.5 L8,11.5 L8,12.5 L8.5,12.5 L8.5,12 Z M6.5,12 L6.5,11.5 L6,11.5 L6,12.5 L6.5,12.5 L6.5,12 Z" fill="#FFFFFF"/>
    </g>
</svg> 