<?xml version="1.0" encoding="UTF-8"?>
<svg width="24px" height="24px" viewBox="0 0 24 24" version="1.1" xmlns="http://www.w3.org/2000/svg">
    <g stroke="none" stroke-width="1" fill="none" fill-rule="evenodd">
        <path d="M23.15,2.587L18.21,0.21C18.1,0.15 17.97,0.12 17.84,0.12C17.71,0.12 17.58,0.15 17.47,0.21L7.26,5.95L1.73,3.28C1.52,3.17 1.27,3.17 1.06,3.28L0.4,3.62C0.15,3.77 0,4.04 0,4.33V19.67C0,19.96 0.15,20.23 0.4,20.38L5.75,23.09C5.86,23.15 5.99,23.18 6.12,23.18C6.25,23.18 6.38,23.15 6.49,23.09L11.41,20.71C11.5,20.67 11.59,20.63 11.68,20.59L16.6,23.97C16.71,24.03 16.84,24.06 16.97,24.06C17.1,24.06 17.23,24.03 17.34,23.97L23.15,20.38C23.4,20.23 23.55,19.96 23.55,19.67V3.28C23.55,3.04 23.4,2.77 23.15,2.62V2.587ZM22.5,19.27L17.69,21.83L12.77,19.45L12.85,19.41L17.69,16.97L22.5,19.27V19.27ZM21.81,17.07L17,14.67L21.81,12.07V17.07V17.07ZM11.64,18.41L6.8,20.85L1.96,18.41L6.8,15.97L11.64,18.41V18.41ZM1.19,17.07V12.07L6,14.67L1.19,17.07V17.07ZM2.38,10.82L6.8,8.4L1.96,5.96L1.19,6.3V10.82H2.38V10.82ZM1.19,11.75V16.27L6,13.67L1.19,11.75V11.75ZM7.2,19.79L12.04,17.35L7.2,14.91V19.79V19.79ZM21.81,10.82V6.3L21.04,5.96L16.2,8.4L20.62,10.82H21.81V10.82ZM22,11.75L17.19,13.67L22,16.27V11.75V11.75ZM16.8,5.96L11.96,8.4L16.8,10.82V5.96V5.96Z" fill="#007ACC"/>
    </g>
</svg> 